<svg id="logoComplet" data-name="Capa 1" xmlns="http://www.w3.org/2000/svg" viewBox="0 0 283.23 283.28">

      <defs>

        <style type="text/css">
	   .cls-2 {
                fill: #fff;
                stroke: #000;
                stroke-miterlimit: 10;
            }

            .cls-2 {
                stroke-width: 4px;
            }

            #logoA{;

                stroke-dasharray: 2200;
                stroke-dashoffset: 0;
               -webkit-animation: aman 10s linear forwards;
               -o-animation: aman 10s linear forwards;
               -moz-animation: aman 10s linear forwards;
                animation: aman 10s linear forwards;


            }
             #logoComplet{

                cursor: pointer;

            }
            #logoComplet:hover #logoA{

                <!-- fill: #ff0000; -->
                transition: 2s;

            }

            #logoComplet.clicat #logoA{

                <!-- fill: #000; -->
                <!-- stroke: #ff0000; -->
                transition: 2s;

            }

            @-webkit-keyframes aman {
                from{
                    stroke-dashoffset: 2200;


                }
               to{
                    stroke-dashoffset: 0;
                    fill: #cedc00;

                }
            }

        </style>

        <!-- <script type="text/javascript">

        var clicar = document.querySelector('#logoComplet');

            clicar.addEventListener('click', function(){
                this.classList.toggle('clicat');
            });
        </script> -->
    </defs>
   <g>
    <!-- <path class="cls-2" id="logoA" d="M147,290.08a139.64,139.64,0,0,0,.61-279.28C69.8,10.49,7.43,73.55,7.33,150.25A139.71,139.71,0,0,0,147,290.08Z" transform="translate(-5.35 -8.79)" /> -->
    <!-- <path class="cls-2" id="logoA" d="M62,117.56h1.43c14.6,0,29.2,0,43.8,0a16.08,16.08,0,0,1,16,16c.06,11.28,0,22.56,0,33.84a14.72,14.72,0,0,1-1.73,7A15.77,15.77,0,0,1,107,183.3c-14.56.11-29.12,0-43.68,0H61.83c0,4,0,7.93,0,11.8,0,7.33,5.19,12.52,12.55,12.53,10.8,0,21.6,0,32.4,0a33.15,33.15,0,0,0,7.38-.69c16.73-3.88,27.26-14.38,32.32-30.62.14-.46.25-.93.45-1.72a39.54,39.54,0,0,0,7.55,16.4c8,10.33,18.44,16.24,31.57,16.58,11.4.3,22.8.15,34.2,0a12.05,12.05,0,0,0,11.79-12c0-2.92,0-5.84,0-8.76v-3.58h-1.54q-21.6,0-43.2,0a16.26,16.26,0,0,1-16.72-16.65q0-16.26,0-32.52a19,19,0,0,1,.31-3.45A16.1,16.1,0,0,1,187,117.56q21.78,0,43.56,0h1.51v-1.33c0-3.48-.13-7,0-10.44.33-7.28-5.92-12.73-12.62-12.66-10.76.12-21.52,0-32.28.08a36.92,36.92,0,0,0-9,1.07c-16,4.31-26.08,14.78-30.82,30.54-.11.37-.21.74-.37,1.33a5.67,5.67,0,0,1-.17-.59c-4.3-18.46-20.66-32-39.33-32.35-11.19-.2-22.39-.09-33.59,0A11.72,11.72,0,0,0,62.12,103.3C61.6,108,62,112.71,62,117.56ZM93,155.4H62.13v18.67H93Zm138.91-28.6H200.94v18.58a7.08,7.08,0,0,0,.79.09c9.71,0,19.42,0,29.13,0,.84,0,1.08-.29,1.08-1.12,0-5.55,0-11.11,0-16.66C231.92,127.44,231.89,127.17,231.86,126.8Zm0,46.84c0-.45.06-.84.06-1.23,0-5.31,0-10.63,0-15.94,0-1.11-.3-1.4-1.4-1.4-9.43,0-18.86,0-28.3,0h-1.32v18.54ZM93,145.7V127.27a9.56,9.56,0,0,0-1-.09c-9.6,0-19.2,0-28.8,0-.92,0-1.14.32-1.13,1.18,0,5.28,0,10.56,0,15.84,0,1.2.3,1.55,1.53,1.55,9.32-.06,18.64,0,28,0Z" transform="translate(-5.35 -8.79)" /> -->
    <path class="cls-2" id="logoA" d="M62,117.56c0-4.85-.42-9.61.1-14.26A11.72,11.72,0,0,1,73.88,93.17c11.2-.06,22.4-.17,33.59,0,18.67.32,35,13.89,39.33,32.35a5.67,5.67,0,0,0,.17.59c.16-.59.26-1,.37-1.33,4.74-15.76,14.79-26.23,30.82-30.54a36.92,36.92,0,0,1,9-1.07c10.76-.12,21.52,0,32.28-.08,6.7-.07,12.95,5.38,12.62,12.66-.15,3.48,0,7,0,10.44v1.33h-1.51q-21.78,0-43.56,0a16.1,16.1,0,0,0-16.07,13.14,19,19,0,0,0-.31,3.45q0,16.26,0,32.52a16.26,16.26,0,0,0,16.72,16.65q21.6,0,43.2,0h1.54v3.58c0,2.92,0,5.84,0,8.76a12.05,12.05,0,0,1-11.79,12c-11.4.11-22.8.26-34.2,0-13.13-.34-23.59-6.25-31.57-16.58a39.54,39.54,0,0,1-7.55-16.4c-.2.79-.31,1.26-.45,1.72-5.06,16.24-15.59,26.74-32.32,30.62a33.15,33.15,0,0,1-7.38.69c-10.8.07-21.6,0-32.4,0-7.36,0-12.55-5.2-12.55-12.53,0-3.87,0-7.75,0-11.8h1.45c14.56,0,29.12.07,43.68,0a15.77,15.77,0,0,0,14.58-8.89,14.72,14.72,0,0,0,1.73-7c0-11.28.06-22.56,0-33.84a16.08,16.08,0,0,0-16-16c-14.6-.06-29.2,0-43.8,0Z" transform="translate(-5.35 -8.79)" />
    <path class="cls-2" id="logoA" d="M93,155.4v18.67H62.13V155.4Z" transform="translate(-5.35 -8.79)" />
    <path class="cls-2" id="logoA" d="M231.86,126.8c0,.37.06.64.06.92,0,5.55,0,11.11,0,16.66,0,.83-.24,1.12-1.08,1.12-9.71,0-19.42,0-29.13,0a7.08,7.08,0,0,1-.79-.09V126.8Z" transform="translate(-5.35 -8.79)" />
    <path class="cls-2" id="logoA" d="M231.86,173.64H200.93V155.1h1.32c9.44,0,18.87,0,28.3,0,1.1,0,1.41.29,1.4,1.4-.06,5.31,0,10.63,0,15.94C231.92,172.8,231.88,173.19,231.86,173.64Z" transform="translate(-5.35 -8.79)" />
    <path class="cls-2" id="logoA" d="M93,145.7H91.5c-9.31,0-18.63,0-27.95,0-1.23,0-1.55-.35-1.53-1.55.06-5.28,0-10.56,0-15.84,0-.86.21-1.18,1.13-1.18,9.6,0,19.2,0,28.8,0a9.56,9.56,0,0,1,1,.09Z" transform="translate(-5.35 -8.79)" />
    <path class="cls-2" id="logoA" d="M147,290.07A139.71,139.71,0,0,1,7.35,150.23C7.44,73.53,69.81,10.47,147.59,10.79A139.64,139.64,0,0,1,147,290.07ZM27.48,150.32C27.27,215,79.9,268.06,145,268.1a117.69,117.69,0,1,0,.08-235.38C80.12,32.76,27.38,85.59,27.48,150.32Z" transform="translate(-5.35 -8.75)" />
</g>
</svg>
